<?xml version="1.0" encoding="utf-8"?>
<svg xmlns="http://www.w3.org/2000/svg" width="16" height="16" version="1.1" id="svg975" xmlns:bx="https://boxy-svg.com">
  <defs id="defs979">
    <filter id="brightness-filter-0" bx:preset="brightness 1 0" color-interpolation-filters="sRGB" x="-50%" y="-50%" width="200%" height="200%">
      <feComponentTransfer>
        <feFuncR type="linear" slope="0"/>
        <feFuncG type="linear" slope="0"/>
        <feFuncB type="linear" slope="0"/>
      </feComponentTransfer>
    </filter>
    <filter id="brightness-filter-1" bx:preset="brightness 1 0.12" color-interpolation-filters="sRGB" x="-50%" y="-50%" width="200%" height="200%">
      <feComponentTransfer>
        <feFuncR type="linear" slope="0.12"/>
        <feFuncG type="linear" slope="0.12"/>
        <feFuncB type="linear" slope="0.12"/>
      </feComponentTransfer>
    </filter>
  </defs>
  <path id="path973" style="fill: rgb(68, 68, 68); filter: url(&quot;#brightness-filter-1&quot;);" d="m 11.5,11 h 1 c 0.277,0 0.5,0.223 0.5,0.5 v 1 c 0,0.277 -0.223,0.5 -0.5,0.5 h -1 C 11.223,13 11,12.777 11,12.5 v -1 C 11,11.223 11.223,11 11.5,11 Z m -4,0 h 1 C 8.777,11 9,11.223 9,11.5 v 1 C 9,12.777 8.777,13 8.5,13 h -1 C 7.223,13 7,12.777 7,12.5 v -1 C 7,11.223 7.223,11 7.5,11 Z m -4,0 h 1 C 4.777,11 5,11.223 5,11.5 v 1 C 5,12.777 4.777,13 4.5,13 h -1 C 3.223,13 3,12.777 3,12.5 v -1 C 3,11.223 3.223,11 3.5,11 Z m 8,-4 h 1 C 12.777,7 13,7.223 13,7.5 v 1 C 13,8.777 12.777,9 12.5,9 h -1 C 11.223,9 11,8.777 11,8.5 v -1 C 11,7.223 11.223,7 11.5,7 Z m -4,0 h 1 C 8.777,7 9,7.223 9,7.5 v 1 C 9,8.777 8.777,9 8.5,9 h -1 C 7.223,9 7,8.777 7,8.5 v -1 C 7,7.223 7.223,7 7.5,7 Z m -4,0 h 1 C 4.777,7 5,7.223 5,7.5 v 1 C 5,8.777 4.777,9 4.5,9 h -1 C 3.223,9 3,8.777 3,8.5 v -1 C 3,7.223 3.223,7 3.5,7 Z m 8,-4 h 1 C 12.777,3 13,3.223 13,3.5 v 1 C 13,4.777 12.777,5 12.5,5 h -1 C 11.223,5 11,4.777 11,4.5 v -1 C 11,3.223 11.223,3 11.5,3 Z m -4,0 h 1 C 8.777,3 9,3.223 9,3.5 v 1 C 9,4.777 8.777,5 8.5,5 h -1 C 7.223,5 7,4.777 7,4.5 v -1 C 7,3.223 7.223,3 7.5,3 Z m -4,0 h 1 C 4.777,3 5,3.223 5,3.5 v 1 C 5,4.777 4.777,5 4.5,5 h -1 C 3.223,5 3,4.777 3,4.5 v -1 C 3,3.223 3.223,3 3.5,3 Z"/>
  <path id="path973-3" style="fill: rgb(255, 128, 0); fill-opacity: 1; filter: url(&quot;#brightness-filter-0&quot;);" d="m 11.251474,10.713679 h 1 c 0.277,0 0.5,0.223 0.5,0.5 v 1 c 0,0.277 -0.223,0.5 -0.5,0.5 h -1 c -0.277,0 -0.5,-0.223 -0.5,-0.5 v -1 c 0,-0.277 0.223,-0.5 0.5,-0.5 z m -4.0000004,0 h 1 c 0.277,0 0.5,0.223 0.5,0.5 v 1 c 0,0.277 -0.223,0.5 -0.5,0.5 h -1 c -0.277,0 -0.5,-0.223 -0.5,-0.5 v -1 c 0,-0.277 0.223,-0.5 0.5,-0.5 z m -4,0 h 1 c 0.277,0 0.5,0.223 0.5,0.5 v 1 c 0,0.277 -0.223,0.5 -0.5,0.5 h -1 c -0.277,0 -0.5,-0.223 -0.5,-0.5 v -1 c 0,-0.277 0.223,-0.5 0.5,-0.5 z m 8.0000004,-4 h 1 c 0.277,0 0.5,0.223 0.5,0.5 v 1 c 0,0.277 -0.223,0.5 -0.5,0.5 h -1 c -0.277,0 -0.5,-0.223 -0.5,-0.5 v -1 c 0,-0.277 0.223,-0.5 0.5,-0.5 z m -4.0000004,0 h 1 c 0.277,0 0.5,0.223 0.5,0.5 v 1 c 0,0.277 -0.223,0.5 -0.5,0.5 h -1 c -0.277,0 -0.5,-0.223 -0.5,-0.5 v -1 c 0,-0.277 0.223,-0.5 0.5,-0.5 z m -4,0 h 1 c 0.277,0 0.5,0.223 0.5,0.5 v 1 c 0,0.277 -0.223,0.5 -0.5,0.5 h -1 c -0.277,0 -0.5,-0.223 -0.5,-0.5 v -1 c 0,-0.277 0.223,-0.5 0.5,-0.5 z m 8.0000004,-4 h 1 c 0.277,0 0.5,0.223 0.5,0.5 v 1 c 0,0.277 -0.223,0.5 -0.5,0.5 h -1 c -0.277,0 -0.5,-0.223 -0.5,-0.5 v -1 c 0,-0.277 0.223,-0.5 0.5,-0.5 z m -4.0000004,0 h 1 c 0.277,0 0.5,0.223 0.5,0.5 v 1 c 0,0.277 -0.223,0.5 -0.5,0.5 h -1 c -0.277,0 -0.5,-0.223 -0.5,-0.5 v -1 c 0,-0.277 0.223,-0.5 0.5,-0.5 z m -4,0 h 1 c 0.277,0 0.5,0.223 0.5,0.5 v 1 c 0,0.277 -0.223,0.5 -0.5,0.5 h -1 c -0.277,0 -0.5,-0.223 -0.5,-0.5 v -1 c 0,-0.277 0.223,-0.5 0.5,-0.5 z"/>
</svg>